<svg width="60" height="58" viewBox="0 0 60 58" fill="none" xmlns="http://www.w3.org/2000/svg">
<path d="M45 44.3118C45 51.1936 36.9 54.2857 30 54.2857C23.1 54.2857 15 51.1936 15 44.3118C15 37.4296 20 26.8572 30 26.8572C40 26.8572 45 37.4296 45 44.3118Z" fill="#B0A1BA"/>
<path fill-rule="evenodd" clip-rule="evenodd" d="M15.5437 3.59768C16.5747 1.94813 18.2343 0.571442 20.3571 0.571442C22.48 0.571442 24.1396 1.94813 25.1706 3.59768C26.2115 5.26319 26.7857 7.43242 26.7857 9.7143C26.7857 11.9962 26.2115 14.1654 25.1706 15.8309C24.1396 17.4805 22.48 18.8572 20.3571 18.8572C18.2343 18.8572 16.5747 17.4805 15.5437 15.8309C14.5028 14.1654 13.9286 11.9962 13.9286 9.7143C13.9286 7.43242 14.5028 5.26319 15.5437 3.59768ZM6.42857 17.7143C4.30573 17.7143 2.64612 19.091 1.61515 20.7405C0.574196 22.406 0 24.5753 0 26.8572C0 29.139 0.574196 31.3083 1.61515 32.9738C2.64612 34.6233 4.30573 36 6.42857 36C8.55141 36 10.211 34.6233 11.242 32.9738C12.2829 31.3083 12.8571 29.139 12.8571 26.8572C12.8571 24.5753 12.2829 22.406 11.242 20.7405C10.211 19.091 8.55141 17.7143 6.42857 17.7143ZM39.6429 0.571442C37.52 0.571442 35.8604 1.94813 34.8294 3.59768C33.7885 5.26319 33.2143 7.43242 33.2143 9.7143C33.2143 11.9962 33.7885 14.1654 34.8294 15.8309C35.8604 17.4805 37.52 18.8572 39.6429 18.8572C41.7657 18.8572 43.4254 17.4805 44.4561 15.8309C45.4971 14.1654 46.0714 11.9962 46.0714 9.7143C46.0714 7.43242 45.4971 5.26319 44.4561 3.59768C43.4254 1.94813 41.7657 0.571442 39.6429 0.571442ZM48.7581 20.7405C49.7889 19.091 51.4487 17.7143 53.5714 17.7143C55.6941 17.7143 57.354 19.091 58.3847 20.7405C59.4257 22.406 60 24.5753 60 26.8572C60 29.139 59.4257 31.3083 58.3847 32.9738C57.354 34.6233 55.6941 36 53.5714 36C51.4487 36 49.7889 34.6233 48.7581 32.9738C47.7171 31.3083 47.1429 29.139 47.1429 26.8572C47.1429 24.5753 47.7171 22.406 48.7581 20.7405ZM17.6786 44.3118C17.6786 41.5067 18.7301 37.7488 20.8814 34.7341C22.9811 31.7917 25.9976 29.7143 30 29.7143C34.0024 29.7143 37.0189 31.7917 39.1186 34.7341C41.2699 37.7488 42.3214 41.5067 42.3214 44.3118C42.3214 46.3159 41.2106 48.0101 38.8326 49.3554C36.428 50.7154 33.1363 51.4286 30 51.4286C26.8637 51.4286 23.572 50.7154 21.1674 49.3554C18.7894 48.0101 17.6786 46.3159 17.6786 44.3118ZM30 24C24.0024 24 19.5189 27.2089 16.6186 31.2732C13.7699 35.2652 12.3214 40.2346 12.3214 44.3118C12.3214 49.1895 15.2606 52.4823 18.6576 54.4037C22.028 56.31 26.2363 57.1429 30 57.1429C33.7637 57.1429 37.972 56.31 41.3424 54.4037C44.7394 52.4823 47.6786 49.1895 47.6786 44.3118C47.6786 40.2346 46.23 35.2652 43.3813 31.2732C40.4811 27.2089 35.9976 24 30 24Z" fill="black"/>
</svg>
